<svg xmlns="http://www.w3.org/2000/svg" width="1024" height="1024" viewBox="0 0 1024 1024" version="1.1"><path d="M 483 204.647 C 475.185 207.194, 469.376 211.444, 465.385 217.536 C 464.120 219.466, 463.989 220.617, 464.791 222.756 C 465.810 225.478, 467.127 232.383, 471.032 255.500 C 472.148 262.100, 474.351 274.904, 475.928 283.953 C 477.801 294.694, 478.497 301.116, 477.932 302.453 C 476.407 306.067, 474.146 308.270, 472.580 307.669 C 471.746 307.349, 470.798 307.518, 470.473 308.044 C 470.148 308.570, 470.434 309, 471.108 309 C 471.782 309, 472.064 309.270, 471.734 309.599 C 470.786 310.547, 462.928 308.926, 463.555 307.911 C 463.865 307.410, 463.432 307, 462.594 307 C 460.773 307, 459.071 304.060, 459.765 302.111 C 460.067 301.262, 459.820 300.993, 459.130 301.420 C 458.403 301.869, 458 301.208, 458 299.566 C 458 298.162, 456.865 291.192, 455.478 284.078 C 454.091 276.964, 452.751 269.424, 452.500 267.322 C 452.250 265.220, 451.833 262.375, 451.574 261 C 451.315 259.625, 450.218 253.550, 449.137 247.500 C 448.056 241.450, 446.676 235.215, 446.070 233.645 L 444.970 230.790 442.235 232.590 C 440.731 233.579, 438.150 235.054, 436.500 235.867 C 434.850 236.680, 432.110 238.390, 430.412 239.668 C 428.713 240.945, 427.026 241.768, 426.662 241.495 C 426.298 241.223, 426.203 241.278, 426.451 241.617 C 426.699 241.957, 424.334 244.124, 421.197 246.434 C 412.553 252.797, 395.253 270.619, 390.930 277.613 C 389.779 279.476, 388.086 281.036, 387.168 281.079 C 386.036 281.133, 385.921 281.326, 386.811 281.683 C 387.866 282.105, 387.838 282.529, 386.665 283.854 C 385.864 284.759, 382.799 290.225, 379.854 296 C 376.909 301.775, 374.160 306.651, 373.744 306.835 C 373.328 307.020, 373.210 307.531, 373.482 307.971 C 373.754 308.411, 372.844 311.860, 371.460 315.636 C 368.132 324.712, 365.160 338.119, 364.467 347.178 C 364.160 351.205, 363.685 356.352, 363.413 358.616 L 362.918 362.733 356.709 363.243 C 348.846 363.890, 344.144 366.329, 340.766 371.515 C 334.795 380.679, 334.293 388.273, 339.104 396.681 C 342.772 403.093, 347.895 406.679, 355.358 408.058 C 358.662 408.669, 418.066 408.932, 515.060 408.766 L 669.500 408.500 674.279 406.126 C 688.423 399.101, 691.972 381.328, 681.402 370.453 C 676.335 365.239, 671.414 363, 665.021 363 L 660.286 363 659.588 352.750 C 658.774 340.785, 656.314 328.717, 652.166 316.336 C 649.050 307.037, 640.487 288.431, 638.283 286.172 C 636.201 284.038, 634.859 281.038, 635.513 279.979 C 635.846 279.441, 635.518 279, 634.785 279 C 634.052 279, 631.438 276.256, 628.976 272.901 C 626.514 269.547, 623.263 265.647, 621.750 264.236 C 620.237 262.824, 619 260.994, 619 260.168 C 619 259.342, 618.722 258.945, 618.382 259.285 C 617.576 260.091, 601.410 245.839, 601.791 244.657 C 601.951 244.161, 601.388 244.021, 600.541 244.346 C 599.693 244.671, 599 244.490, 599 243.944 C 599 243.398, 597.987 242.498, 596.750 241.945 C 595.513 241.392, 590.924 238.755, 586.552 236.085 C 577.804 230.741, 575.427 230.754, 575.591 236.148 C 575.708 239.997, 575.804 239.410, 567.639 284.835 C 567.012 288.319, 566.241 290.910, 565.924 290.592 C 565.608 290.275, 565.547 291.366, 565.789 293.017 C 566.031 294.668, 565.689 296.669, 565.029 297.465 C 564.368 298.261, 564.086 299.330, 564.402 299.841 C 564.718 300.352, 564.505 302.121, 563.930 303.772 C 563.161 305.976, 561.758 307.202, 558.642 308.393 C 554.625 309.927, 554.185 309.908, 550.321 308.041 C 546.094 305.999, 544.230 303.490, 546.306 302.641 C 547.231 302.262, 547.230 301.960, 546.304 301.301 C 544.527 300.035, 545.893 289.382, 551.215 263 C 552.824 255.025, 554.319 246.475, 554.537 244 C 554.755 241.525, 555.390 237.250, 555.948 234.500 C 558.780 220.537, 558.981 218.833, 558.014 217.026 C 556.199 213.635, 546.555 206.229, 542.500 205.112 C 538.554 204.026, 486.162 203.616, 483 204.647 M 480.768 819.725 C 482.565 819.947, 485.265 819.943, 486.768 819.715 C 488.271 819.486, 486.800 819.304, 483.500 819.310 C 480.200 819.315, 478.971 819.502, 480.768 819.725 M 537.768 819.725 C 539.565 819.947, 542.265 819.943, 543.768 819.715 C 545.271 819.486, 543.800 819.304, 540.500 819.310 C 537.200 819.315, 535.971 819.502, 537.768 819.725" stroke="none" fill="#fbb445" fill-rule="evenodd"/><path d="M 371.601 433.597 C 371.267 434.468, 371.168 435.477, 371.381 435.840 C 371.593 436.203, 372.060 440.054, 372.417 444.399 C 372.774 448.743, 373.307 452.688, 373.602 453.165 C 373.897 453.642, 374.357 455.263, 374.625 456.766 C 375.971 464.336, 382.366 478.505, 387.936 486.262 C 389.730 488.759, 393.205 492.245, 395.660 494.007 C 398.114 495.770, 399.914 497.419, 399.660 497.673 C 399.406 497.927, 399.586 499.567, 400.059 501.317 C 400.532 503.068, 401.176 506.075, 401.490 508 C 402.385 513.491, 407.051 529.397, 408.076 530.450 C 408.584 530.973, 409 531.929, 409 532.575 C 409 536.203, 419.082 554.776, 429.858 571 L 437.497 582.500 437.681 593.540 C 437.960 610.296, 434.675 617.115, 422.570 624.907 C 419.231 627.056, 413.350 630.015, 409.500 631.483 C 405.650 632.951, 401.150 634.670, 399.500 635.302 C 397.850 635.935, 396.050 636.559, 395.500 636.689 C 390.771 637.805, 376.663 641.334, 368.500 643.443 C 363 644.864, 357.600 646.223, 356.500 646.462 C 355.400 646.702, 353.600 647.128, 352.500 647.411 C 343.243 649.786, 337.033 651.249, 334.500 651.652 C 332.850 651.915, 329.700 652.600, 327.500 653.174 C 325.300 653.748, 322.375 654.398, 321 654.619 C 318.739 654.982, 315.146 655.824, 312.500 656.610 C 308.155 657.900, 296.031 661.177, 294.070 661.591 C 292.734 661.874, 291.273 662.331, 290.824 662.609 C 290.375 662.886, 289.217 663.266, 288.251 663.452 C 285.926 663.899, 268.315 670.792, 264.500 672.747 C 255.264 677.481, 243.877 686.361, 238.500 693.023 C 232.105 700.946, 226.733 712.426, 224.423 723.104 C 222.520 731.901, 221.678 755.777, 223.124 759.926 C 224.091 762.699, 230.039 769.469, 234.890 773.318 C 239.052 776.620, 257.721 785.884, 264.671 788.096 C 268.427 789.292, 272.063 790.714, 272.750 791.257 C 273.438 791.800, 274 791.949, 274 791.587 C 274 791.226, 274.871 791.396, 275.936 791.966 C 277.485 792.795, 286.325 795.279, 302.500 799.431 C 303.050 799.572, 304.625 799.978, 306 800.333 C 307.375 800.688, 309.850 801.226, 311.500 801.528 C 313.150 801.830, 320.575 803.224, 328 804.626 C 343.002 807.459, 343.815 807.602, 349.500 808.408 C 357.410 809.530, 360.571 809.952, 365 810.479 C 367.475 810.774, 371.075 811.229, 373 811.492 C 374.925 811.754, 383.250 812.666, 391.500 813.518 C 399.750 814.371, 408.471 815.287, 410.881 815.553 C 457.014 820.657, 562.787 820.650, 612.500 815.540 C 614.700 815.313, 619.650 814.842, 623.500 814.491 C 630.643 813.841, 652.678 811.364, 659 810.501 C 660.925 810.238, 664.300 809.790, 666.500 809.504 C 672.938 808.670, 676.302 808.174, 679.500 807.588 C 703.688 803.160, 709.885 801.997, 712 801.491 C 713.375 801.162, 715.400 800.727, 716.500 800.525 C 719.079 800.052, 720.564 799.671, 732 796.552 C 737.225 795.127, 742.308 793.766, 743.295 793.529 C 744.283 793.292, 748.783 791.765, 753.295 790.136 C 757.808 788.508, 762.625 786.856, 764 786.466 C 768.982 785.051, 787.205 775.015, 791.847 771.128 C 794.462 768.938, 797.798 764.950, 799.259 762.266 C 801.808 757.582, 801.899 756.885, 801.524 744.943 C 801.099 731.420, 800.777 728.595, 798.591 719.250 C 798.365 718.288, 797.110 714.568, 795.800 710.985 C 789.081 692.602, 771.998 677.150, 748.593 668.284 C 743.592 666.390, 738.600 664.433, 737.500 663.937 C 735.405 662.991, 711.321 656.440, 707 655.641 C 705.625 655.387, 703.825 654.935, 703 654.637 C 702.175 654.339, 700.150 653.866, 698.500 653.586 C 695.390 653.059, 686.464 650.976, 657.500 644.020 C 648.150 641.774, 639.375 639.698, 638 639.405 C 634.038 638.561, 616.604 632.828, 615.500 632.005 C 614.950 631.596, 612.885 630.741, 610.912 630.106 C 605.665 628.418, 595.676 621.643, 592.180 617.402 C 587.766 612.048, 586.285 606.458, 586.199 594.838 C 586.117 583.697, 586.643 582.070, 593.801 571.328 C 603.683 556.498, 613.833 537.320, 616.998 527.500 C 617.707 525.300, 618.848 521.925, 619.535 520 C 620.222 518.075, 620.802 516.156, 620.824 515.736 C 620.864 514.966, 622.545 506.636, 623.594 502 C 623.906 500.625, 624.199 498.895, 624.247 498.156 C 624.294 497.417, 626.218 495.392, 628.521 493.656 C 632.947 490.321, 640.180 480.997, 642.471 475.674 C 643.223 473.928, 644.758 470.401, 645.884 467.835 C 647.009 465.270, 648.170 462.120, 648.464 460.835 C 650.661 451.225, 651.700 444.519, 651.888 438.737 L 652.105 432.014 512.157 432.014 C 385.411 432.014, 372.151 432.163, 371.601 433.597" stroke="none" fill="#5c5c5c" fill-rule="evenodd"/></svg>